<?xml version="1.0" encoding="utf-8"?>
<!-- Generator: Adobe Illustrator 21.1.0, SVG Export Plug-In . SVG Version: 6.00 Build 0)  -->
<svg version="1.1" id="Слой_1" xmlns="http://www.w3.org/2000/svg" xmlns:xlink="http://www.w3.org/1999/xlink" x="0px" y="0px"
	 viewBox="0 0 137 137" style="enable-background:new 0 0 137 137;" xml:space="preserve">
<style type="text/css">
	.st0{clip-path:url(#SVGID_2_);}
</style>
<g>
	<defs>
		<rect id="SVGID_1_" width="137" height="137"/>
	</defs>
	<clipPath id="SVGID_2_">
		<use xlink:href="#SVGID_1_"  style="overflow:visible;"/>
	</clipPath>
	<path class="st0" d="M121,0H16C7.2,0,0,7.2,0,16v105c0,8.8,7.2,16,16,16h105c8.8,0,16-7.2,16-16V16C137,7.2,129.8,0,121,0
		 M95.6,35.3H82.1c-2.9,0-5.3,2.4-5.3,5.3v14.7h18.7l-2.9,18.8H76.8v47.3H57.2V74.1H41.4V55.2h15.8V40.5c0-13.7,11.2-24.9,24.9-24.9
		h13.5V35.3z"/>
</g>
</svg>
