<?xml version="1.0" encoding="utf-8"?>
<!-- Generator: Adobe Illustrator 21.1.0, SVG Export Plug-In . SVG Version: 6.00 Build 0)  -->
<svg version="1.1" id="Слой_1" xmlns="http://www.w3.org/2000/svg" xmlns:xlink="http://www.w3.org/1999/xlink" x="0px" y="0px"
	 viewBox="0 0 191.7 191.7" style="enable-background:new 0 0 191.7 191.7;" xml:space="preserve">
<style type="text/css">
	.st0{clip-path:url(#SVGID_2_);fill:#323232;}
</style>
<g>
	<defs>
		<rect id="SVGID_1_" width="191.7" height="191.7"/>
	</defs>
	<clipPath id="SVGID_2_">
		<use xlink:href="#SVGID_1_"  style="overflow:visible;"/>
	</clipPath>
	<path class="st0" d="M160.5,0H31.2C14.1,0,0,14.1,0,31.2v129.3c0,17.2,14.1,31.2,31.2,31.2h129.3c17.2,0,31.2-14,31.2-31.2V31.2
		C191.7,14.1,177.7,0,160.5,0 M174.8,129.9c0,24.8-20.2,44.9-44.9,44.9h-68c-24.8,0-44.9-20.2-44.9-44.9v-68
		c0-24.8,20.2-44.9,44.9-44.9h68c24.8,0,44.9,20.2,44.9,44.9V129.9z"/>
	<path class="st0" d="M95.9,69C81,69,69,81,69,95.9s12.1,26.9,26.9,26.9c14.8,0,26.9-12.1,26.9-26.9S110.7,69,95.9,69"/>
	<path class="st0" d="M129.9,30.5h-68c-17.3,0-31.4,14.1-31.4,31.4v68c0,17.3,14.1,31.4,31.4,31.4h68c17.3,0,31.4-14.1,31.4-31.4
		v-68C161.3,44.6,147.2,30.5,129.9,30.5 M95.9,136.3c-22.3,0-40.4-18.1-40.4-40.4s18.1-40.4,40.4-40.4c22.3,0,40.4,18.1,40.4,40.4
		S118.1,136.3,95.9,136.3 M138,62.8c-5.4,0-9.7-4.3-9.7-9.7c0-5.4,4.3-9.7,9.7-9.7c5.4,0,9.7,4.3,9.7,9.7
		C147.7,58.5,143.4,62.8,138,62.8"/>
</g>
</svg>
